<?xml version="1.0" encoding="UTF-8" standalone="no"?>
<!DOCTYPE svg PUBLIC "-//W3C//DTD SVG 1.1//EN" "http://www.w3.org/Graphics/SVG/1.1/DTD/svg11.dtd">
<svg width="100%" height="100%" viewBox="0 0 1920 1080" version="1.1" xmlns="http://www.w3.org/2000/svg" xmlns:xlink="http://www.w3.org/1999/xlink" xml:space="preserve" xmlns:serif="http://www.serif.com/" style="fill-rule:evenodd;clip-rule:evenodd;stroke-linejoin:round;stroke-miterlimit:2;">
    <g transform="matrix(0.369694,0,0,0.37228,1044.02,840.075)">
        <ellipse cx="290.909" cy="262.937" rx="69.93" ry="72.727" style="fill:rgb(16,86,74);"/>
    </g>
    <g transform="matrix(0.434591,0,0,0.442481,1564.51,-42.7281)">
        <circle cx="578.671" cy="324.126" r="61.189" style="fill:rgb(70,211,133);"/>
    </g>
    <g transform="matrix(0.369694,0,0,0.37228,393.327,656.585)">
        <ellipse cx="290.909" cy="262.937" rx="69.93" ry="72.727" style="fill:rgb(16,86,74);"/>
    </g>
    <g transform="matrix(0.434591,0,0,0.442481,782.496,-113.603)">
        <circle cx="578.671" cy="324.126" r="61.189" style="fill:rgb(70,211,133);"/>
    </g>
    <g transform="matrix(0.369694,0,0,0.37228,409.914,12.3168)">
        <ellipse cx="290.909" cy="262.937" rx="69.93" ry="72.727" style="fill:rgb(16,86,74);"/>
    </g>
    <g transform="matrix(0.441595,-0.525164,0.142942,0.121883,1275.61,941.914)">
        <circle cx="578.671" cy="324.126" r="61.189" style="fill:rgb(70,211,133);"/>
    </g>
    <g transform="matrix(0.369694,0,0,0.37228,1191.43,282.338)">
        <path d="M353.678,1910.99L370.838,1963.8L403.905,1947.49L398.602,1983.98L454.131,1983.98L409.207,2016.62L434.946,2043.02L398.602,2049.25L415.762,2102.07L370.838,2069.43L353.678,2102.07L336.519,2069.43L291.595,2102.07L308.754,2049.25L272.41,2043.02L298.149,2016.62L253.225,1983.98L308.754,1983.98L303.452,1947.49L336.519,1963.8L353.678,1910.99Z" style="fill:rgb(16,86,74);"/>
    </g>
    <g transform="matrix(0.369694,0,0,0.37228,660.39,-71.4378)">
        <path d="M710.825,1910.99L727.839,1963.36L760.626,1947.17L755.368,1983.36L810.427,1983.36L765.884,2015.72L791.405,2041.9L755.368,2048.08L772.382,2100.45L727.839,2068.08L710.825,2100.45L693.811,2068.08L649.268,2100.45L666.282,2048.08L630.246,2041.9L655.767,2015.72L611.224,1983.36L666.282,1983.36L661.024,1947.17L693.811,1963.36L710.825,1910.99Z" style="fill:rgb(16,86,74);"/>
    </g>
    <g transform="matrix(0.121399,0.177621,-0.304537,0.211064,1601.78,-153.463)">
        <rect x="178.014" y="577.287" width="187.189" height="187.189" style="fill:rgb(70,211,133);"/>
    </g>
    <g transform="matrix(0.205057,0.0578146,-0.0710779,0.255638,602.144,-135.727)">
        <rect x="467.678" y="577.287" width="109.776" height="187.189" style="fill:rgb(70,211,133);"/>
    </g>
    <g transform="matrix(0.162416,0.334429,-0.332107,0.163552,397.437,284.253)">
        <rect x="702.769" y="577.287" width="329.398" height="187.189" style="fill:rgb(70,211,133);"/>
    </g>
    <g transform="matrix(0.345537,0.131446,-0.132366,0.347953,1272.4,-203.149)">
        <rect x="178.014" y="577.287" width="187.189" height="187.189" style="fill:rgb(16,86,74);"/>
    </g>
    <g transform="matrix(-0.11392,0.166294,-0.219317,-0.152353,2156.52,1098.24)">
        <path d="M342.937,1284.26L274.909,1284.26L412.755,1087.34L550.601,1284.26L482.573,1284.26L482.573,1552.95L342.937,1552.95L342.937,1284.26Z" style="fill:rgb(16,86,74);"/>
    </g>
    <g transform="matrix(0.162977,0.180354,-0.229277,0.210093,734.497,659.553)">
        <path d="M342.937,1284.26L274.909,1284.26L412.755,1087.34L550.601,1284.26L482.573,1284.26L482.573,1552.95L342.937,1552.95L342.937,1284.26Z" style="fill:rgb(70,211,133);"/>
    </g>
    <g transform="matrix(0.199033,0.313723,-0.311544,0.200425,1851.86,-165.652)">
        <rect x="178.014" y="577.287" width="187.189" height="187.189" style="fill:rgb(16,86,74);"/>
    </g>
    <g transform="matrix(0.369694,0,0,0.37228,746.518,-169.058)">
        <rect x="467.678" y="577.287" width="109.776" height="187.189" style="fill:rgb(16,86,74);"/>
    </g>
    <g transform="matrix(0.234706,0.287632,-0.285635,0.236347,693.898,-342.085)">
        <rect x="702.769" y="577.287" width="329.398" height="187.189" style="fill:rgb(16,86,74);"/>
    </g>
    <g transform="matrix(0.252859,-0.185455,0.217652,0.300923,208.004,811.597)">
        <path d="M1823.44,1048.11L1916.53,1320.14L1730.35,1320.14L1823.44,1048.11Z" style="fill:rgb(70,211,133);"/>
    </g>
    <g transform="matrix(0.276623,-0.246978,0.245263,0.278557,432.889,879.547)">
        <path d="M2108.92,1048.11L2217.85,1265.96L2000,1265.96L2108.92,1048.11Z" style="fill:rgb(70,211,133);"/>
    </g>
    <g transform="matrix(0.276623,-0.246978,0.245263,0.278557,-538.969,287.876)">
        <path d="M2108.92,1048.11L2217.85,1265.96L2000,1265.96L2108.92,1048.11Z" style="fill:rgb(70,211,133);"/>
    </g>
    <g transform="matrix(-0.0569169,-0.219907,0.26063,-0.0655456,215.645,785.322)">
        <path d="M1823.44,1048.11L1916.53,1320.14L1730.35,1320.14L1823.44,1048.11Z" style="fill:rgb(16,86,74);"/>
    </g>
    <g transform="matrix(0.369694,0,0,0.37228,497.792,410.43)">
        <path d="M2108.92,1048.11L2217.85,1265.96L2000,1265.96L2108.92,1048.11Z" style="fill:rgb(16,86,74);"/>
    </g>
    <g transform="matrix(-0.138999,0.282282,-0.287406,-0.141522,845.628,83.4131)">
        <circle cx="578.671" cy="324.126" r="61.189" style="fill:rgb(70,211,133);"/>
    </g>
    <g transform="matrix(0.369694,0,0,0.37228,422.135,91.7051)">
        <path d="M710.825,1910.99L727.839,1963.36L760.626,1947.17L755.368,1983.36L810.427,1983.36L765.884,2015.72L791.405,2041.9L755.368,2048.08L772.382,2100.45L727.839,2068.08L710.825,2100.45L693.811,2068.08L649.268,2100.45L666.282,2048.08L630.246,2041.9L655.767,2015.72L611.224,1983.36L666.282,1983.36L661.024,1947.17L693.811,1963.36L710.825,1910.99Z" style="fill:rgb(16,86,74);"/>
    </g>
    <g transform="matrix(0.15933,-0.183584,0.236269,0.202198,1118.02,591.381)">
        <path d="M342.937,1284.26L274.909,1284.26L412.755,1087.34L550.601,1284.26L482.573,1284.26L482.573,1552.95L342.937,1552.95L342.937,1284.26Z" style="fill:rgb(70,211,133);"/>
    </g>
    <g transform="matrix(-0.158428,0.336364,-0.334028,-0.159536,2471.76,214.549)">
        <path d="M2108.92,1048.11L2217.85,1265.96L2000,1265.96L2108.92,1048.11Z" style="fill:rgb(70,211,133);"/>
    </g>
    <g transform="matrix(0.441595,-0.525164,0.142942,0.121883,1275.61,941.914)">
        <circle cx="578.671" cy="324.126" r="61.189" style="fill:rgb(70,211,133);"/>
    </g>
    <g transform="matrix(-0.158428,0.336364,-0.334028,-0.159536,2290.09,433.616)">
        <path d="M2108.92,1048.11L2217.85,1265.96L2000,1265.96L2108.92,1048.11Z" style="fill:rgb(70,211,133);"/>
    </g>
    <g transform="matrix(0.145384,0.342285,-0.339908,0.146401,566.727,194.75)">
        <rect x="467.678" y="577.287" width="109.776" height="187.189" style="fill:rgb(70,211,133);"/>
    </g>
    <g transform="matrix(0.14548,-0.238404,0.154733,0.0957475,272.579,546.762)">
        <path d="M342.937,1284.26L274.909,1284.26L412.755,1087.34L550.601,1284.26L482.573,1284.26L482.573,1552.95L342.937,1552.95L342.937,1284.26Z" style="fill:rgb(70,211,133);"/>
    </g>
    <g transform="matrix(0.369694,0,0,0.37228,455.367,-415.821)">
        <path d="M710.825,1910.99L727.839,1963.36L760.626,1947.17L755.368,1983.36L810.427,1983.36L765.884,2015.72L791.405,2041.9L755.368,2048.08L772.382,2100.45L727.839,2068.08L710.825,2100.45L693.811,2068.08L649.268,2100.45L666.282,2048.08L630.246,2041.9L655.767,2015.72L611.224,1983.36L666.282,1983.36L661.024,1947.17L693.811,1963.36L710.825,1910.99Z" style="fill:rgb(16,86,74);"/>
    </g>
    <g transform="matrix(-0.158428,0.336364,-0.334028,-0.159536,1295.49,-132.215)">
        <path d="M2108.92,1048.11L2217.85,1265.96L2000,1265.96L2108.92,1048.11Z" style="fill:rgb(70,211,133);"/>
    </g>
    <g transform="matrix(0.441595,-0.525164,0.142942,0.121883,224.602,471.137)">
        <circle cx="578.671" cy="324.126" r="61.189" style="fill:rgb(70,211,133);"/>
    </g>
    <g transform="matrix(0.276623,-0.246978,0.245263,0.278557,-784.943,466.656)">
        <path d="M2108.92,1048.11L2217.85,1265.96L2000,1265.96L2108.92,1048.11Z" style="fill:rgb(70,211,133);"/>
    </g>
    <g transform="matrix(0.369694,0,0,0.37228,88.963,141.853)">
        <ellipse cx="290.909" cy="262.937" rx="69.93" ry="72.727" style="fill:rgb(16,86,74);"/>
    </g>
    <g transform="matrix(-0.237763,0.204705,-0.240244,-0.282958,943.04,410.664)">
        <path d="M1823.44,1048.11L1916.53,1320.14L1730.35,1320.14L1823.44,1048.11Z" style="fill:rgb(16,86,74);"/>
    </g>
    <g transform="matrix(0.434591,0,0,0.442481,905.559,567.738)">
        <circle cx="578.671" cy="324.126" r="61.189" style="fill:rgb(70,211,133);"/>
    </g>
    <g transform="matrix(0.441595,-0.525164,0.142942,0.121883,848.895,297.386)">
        <circle cx="578.671" cy="324.126" r="61.189" style="fill:rgb(70,211,133);"/>
    </g>
    <g transform="matrix(0.187711,0.100775,-0.124659,0.234229,32.7354,370.759)">
        <rect x="467.678" y="577.287" width="109.776" height="187.189" style="fill:rgb(70,211,133);"/>
    </g>
    <g transform="matrix(0.166978,0.331568,-0.329973,0.169013,161.382,172.678)">
        <rect x="702.769" y="577.287" width="329.398" height="187.189" style="fill:rgb(16,86,74);"/>
    </g>
    <g transform="matrix(-0.363009,-0.0699905,0.0704799,-0.365547,921.223,1107.09)">
        <ellipse cx="290.909" cy="262.937" rx="69.93" ry="72.727" style="fill:rgb(16,86,74);"/>
    </g>
    <g transform="matrix(0.219243,-0.300287,0.297784,0.219889,-89.5545,1032.72)">
        <path d="M2108.92,1048.11L2217.85,1265.96L2000,1265.96L2108.92,1048.11Z" style="fill:rgb(70,211,133);"/>
    </g>
    <g transform="matrix(-0.398856,-0.172579,0.175712,-0.406097,1234.33,1319.41)">
        <circle cx="578.671" cy="324.126" r="61.189" style="fill:rgb(70,211,133);"/>
    </g>
    <g transform="matrix(-0.0408825,-0.211224,0.36331,-0.0727755,456.912,1080.82)">
        <rect x="178.014" y="577.287" width="187.189" height="187.189" style="fill:rgb(70,211,133);"/>
    </g>
    <g transform="matrix(-0.613829,0.306622,-0.082788,-0.168624,1375.61,858.961)">
        <circle cx="578.671" cy="324.126" r="61.189" style="fill:rgb(70,211,133);"/>
    </g>
    <g transform="matrix(0.145384,0.342285,-0.339908,0.146401,213.246,536.459)">
        <rect x="467.678" y="577.287" width="109.776" height="187.189" style="fill:rgb(70,211,133);"/>
    </g>
    <g transform="matrix(0.107771,-0.287464,0.251639,0.0956647,-100.754,1197.42)">
        <rect x="702.769" y="577.287" width="329.398" height="187.189" style="fill:rgb(70,211,133);"/>
    </g>
    <g transform="matrix(-0.11392,0.166294,-0.219317,-0.152353,586.874,1035.93)">
        <path d="M342.937,1284.26L274.909,1284.26L412.755,1087.34L550.601,1284.26L482.573,1284.26L482.573,1552.95L342.937,1552.95L342.937,1284.26Z" style="fill:rgb(16,86,74);"/>
    </g>
    <g transform="matrix(0.199033,0.313723,-0.311544,0.200425,313.051,-165.652)">
        <rect x="178.014" y="577.287" width="187.189" height="187.189" style="fill:rgb(16,86,74);"/>
    </g>
    <g transform="matrix(0.276623,-0.246978,0.245263,0.278557,-924.663,400.908)">
        <path d="M2108.92,1048.11L2217.85,1265.96L2000,1265.96L2108.92,1048.11Z" style="fill:rgb(70,211,133);"/>
    </g>
</svg>
